<svg height="258.072785" viewBox="0 0 150 100" width="387.487584" xmlns="http://www.w3.org/2000/svg"><g fill="#434140"><path d="m48.32 37.23v-6.6h-46.88v14.24h.05c17.81-9.93 33.22-10.87 46.83-7.64z"/><path d="m19.24 67.24c11.56-4.56 21-6.82 29.08-7.56v-14.21c-14.87-5.34-30.54-7.47-46.83-.17h-.05v28.48h46.88v-9.57c-8.22-.69-17.65-.03-29.08 3.03z"/><path d="m98.36 30.64h-46.8v7.44c18.49 5.31 33.56 17.8 46.78 24.44.06.02.02-31.88.02-31.88z"/><path d="m120.17 38.57a13.34 13.34 0 0 0 -3.56-1.15 21.4 21.4 0 0 0 -14.92 4.06v22.61a31.48 31.48 0 0 0 10 2.71h-.06c6.48.52 12.94-2.6 16-8.31 3.91-7.4.57-16.31-7.46-19.92z"/><path d="m134.52 66.25a18.61 18.61 0 0 0 -.38-18.25 15.31 15.31 0 0 1 -1.57 10.08 16.58 16.58 0 0 1 -4.07 5c-.37.32-1.06.87-1.06.87-8 5.94-16.57 6.58-25.75 4.46v5.39h25.93a20.5 20.5 0 0 0 6.9-7.55z"/><path d="m98.38 67.52c-14.38-4.22-30.07-14.27-46.84-20.83v12.77c20.22-.87 31.53 8.07 46.84 12.91z"/><path d="m81.71 73.78c-9.31-3.53-18.53-7.69-30.15-9.22v9.22z"/><path d="m148.56 30.63h-46.88v9.73a25.88 25.88 0 0 1 28.32-4.68c12.1 5.43 17.12 18.86 11.22 30a22.92 22.92 0 0 1 -7.22 8.1h14.6z"/><path d="m32 16.81c-.33 1.26-.6 2.43-.82 3.48-.27-1.28-.58-2.47-.92-3.57l-4.64-15.16h-3.62l-4.43 15c-.36 1.19-.67 2.4-.92 3.62-.21-1.06-.46-2.19-.76-3.37l-3.89-15.25h-3.87l6.68 25.07h3.42l4.82-16.42c.31-1 .57-2 .79-2.91a.19.19 0 0 0 0 .07c.29 1.1.55 2 .78 2.73l5 16.53h3.38l6.7-25.07h-3.81z"/><path d="m50.11 7.33a13 13 0 0 0 -3.31.43 13.16 13.16 0 0 0 -3 1.18l-.33.17 1.12 2.89.4-.19a11.55 11.55 0 0 1 5-1.35 3.41 3.41 0 0 1 2.63.88 4.21 4.21 0 0 1 .81 2.87v.73l-2.72.06c-6.11.19-9.21 2.27-9.21 6.19a5.51 5.51 0 0 0 1.67 4.27 6.49 6.49 0 0 0 4.52 1.54 8.62 8.62 0 0 0 3.54-.64 7.45 7.45 0 0 0 2.42-1.89l.46 2.2h2.8v-12.86c0-2.23-.57-3.89-1.7-4.93a7.34 7.34 0 0 0 -5.1-1.55zm3.21 10.38v1.21a4.82 4.82 0 0 1 -1.32 3.64 5.18 5.18 0 0 1 -3.74 1.29 3.37 3.37 0 0 1 -2.26-.67 2.43 2.43 0 0 1 -.76-2 2.65 2.65 0 0 1 1.26-2.45 9.76 9.76 0 0 1 4.53-1z"/><path d="m63 7.63h3.59v19.01h-3.59z"/><path d="m64.81.88a2.08 2.08 0 0 0 -1.45.55 2.25 2.25 0 0 0 -.59 1.69 2.26 2.26 0 0 0 .59 1.68 2 2 0 0 0 1.45.58 2 2 0 0 0 1.43-.57 2.22 2.22 0 0 0 .61-1.69 2.18 2.18 0 0 0 -.61-1.68 2 2 0 0 0 -1.43-.56z"/><path d="m88.26 7.63h-4.42l-6 6.35q-.89 1-1.5 1.77c0-.7.06-1.24.06-1.66v-14.09h-3.56v26.63h3.56v-7l1.6-1.39 6.27 8.39h4.38l-8.18-10.81z"/><path d="m99.17 7.33a12.91 12.91 0 0 0 -3.31.43 13.16 13.16 0 0 0 -3 1.18l-.33.17 1.11 2.89.41-.19a11.55 11.55 0 0 1 5-1.35 3.38 3.38 0 0 1 2.63.88 4.2 4.2 0 0 1 .82 2.87v.73l-2.73.06c-6.11.19-9.21 2.27-9.21 6.19a5.48 5.48 0 0 0 1.67 4.27 6.49 6.49 0 0 0 4.52 1.54 8.62 8.62 0 0 0 3.54-.64 7.45 7.45 0 0 0 2.42-1.89l.46 2.2h2.83v-12.86c0-2.23-.57-3.89-1.7-4.93a7.36 7.36 0 0 0 -5.13-1.55zm3.21 10.38v1.21a4.82 4.82 0 0 1 -1.38 3.64 5.18 5.18 0 0 1 -3.74 1.29 3.37 3.37 0 0 1 -2.26-.67 2.43 2.43 0 0 1 -.76-2 2.65 2.65 0 0 1 1.26-2.45 9.71 9.71 0 0 1 4.52-1z"/><path d="m119.69 23.75a8.41 8.41 0 0 1 -1.35.1 2.31 2.31 0 0 1 -1.82-.73 3.31 3.31 0 0 1 -.68-2.25v-10.27h5.28v-3h-5.28v-4.19h-2.32l-1.19 4-2.68 1.17v2h2.61v10.42c0 3.91 2 6 5.69 6a11.21 11.21 0 0 0 1.63-.14 5.23 5.23 0 0 0 1.43-.4l.24-.11v-2.97l-.54.16a8.79 8.79 0 0 1 -1.02.21z"/><path d="m139.47 10a8.13 8.13 0 0 0 -6.38-2.68 8.26 8.26 0 0 0 -6.47 2.62 10.43 10.43 0 0 0 -2.33 7.2 11.91 11.91 0 0 0 1.07 5.19 8 8 0 0 0 3.08 3.46 8.6 8.6 0 0 0 4.56 1.21 8.29 8.29 0 0 0 6.49-2.63 10.46 10.46 0 0 0 2.35-7.22 10.43 10.43 0 0 0 -2.37-7.15zm-6.47 13.82a4.4 4.4 0 0 1 -3.76-1.66 8.3 8.3 0 0 1 -1.3-5.05 8.23 8.23 0 0 1 1.28-5 5.21 5.21 0 0 1 7.56 0 8.07 8.07 0 0 1 1.31 5 8.24 8.24 0 0 1 -1.31 5.06 4.46 4.46 0 0 1 -3.78 1.65z"/><path d="m4.54 99.91h-.46v-6.13h-2.14v-.43h4.73v.43h-2.13z"/><path d="m9.57 100a2.13 2.13 0 0 1 -1.66-.66 2.59 2.59 0 0 1 -.6-1.83 2.88 2.88 0 0 1 .58-1.87 1.89 1.89 0 0 1 1.55-.7 1.68 1.68 0 0 1 1.36.6 2.48 2.48 0 0 1 .5 1.63v.36h-3.52a2.34 2.34 0 0 0 .47 1.54 1.67 1.67 0 0 0 1.32.53 3.91 3.91 0 0 0 .73-.06 4.36 4.36 0 0 0 .8-.25v.4a4 4 0 0 1 -.76.25 4.54 4.54 0 0 1 -.77.06zm-.13-4.67a1.46 1.46 0 0 0 -1.13.47 2.16 2.16 0 0 0 -.5 1.34h3a2.17 2.17 0 0 0 -.37-1.33 1.23 1.23 0 0 0 -1-.48z"/><path d="m19.69 99.91h-.56l-2.52-3.47-.88.78v2.69h-.46v-6.56h.46v3.41l.73-.73 2.54-2.68h.59l-2.69 2.77z"/><path d="m23.53 99.91-.11-.77a2.3 2.3 0 0 1 -.75.67 2 2 0 0 1 -.92.19 1.58 1.58 0 0 1 -1.12-.37 1.29 1.29 0 0 1 -.4-1 1.27 1.27 0 0 1 .6-1.11 3.2 3.2 0 0 1 1.72-.41h.93v-.32a1.69 1.69 0 0 0 -.28-1 1.11 1.11 0 0 0 -.92-.36 3 3 0 0 0 -1.4.38l-.17-.39a3.78 3.78 0 0 1 1.59-.38 1.56 1.56 0 0 1 1.2.42 1.82 1.82 0 0 1 .4 1.3v3.25zm-1.79-.31a1.56 1.56 0 0 0 1.68-1.69v-.48h-.85a3.33 3.33 0 0 0 -1.47.32 1 1 0 0 0 -.44.85.93.93 0 0 0 .28.71 1.17 1.17 0 0 0 .8.29z"/><path d="m25.89 95v3.16a1.52 1.52 0 0 0 .31 1.07 1.27 1.27 0 0 0 1 .34 1.68 1.68 0 0 0 1.28-.44 2 2 0 0 0 .41-1.44v-2.69h.44v4.88h-.37l-.08-.67a1.83 1.83 0 0 1 -1.69.76c-1.11 0-1.67-.59-1.67-1.78v-3.19z"/><path d="m34.4 99.91v-3.16a1.6 1.6 0 0 0 -.31-1.08 1.27 1.27 0 0 0 -1-.33 1.69 1.69 0 0 0 -1.29.44 2.1 2.1 0 0 0 -.4 1.44v2.69h-.4v-4.91h.38l.09.67a1.84 1.84 0 0 1 1.7-.76c1.1 0 1.66.59 1.66 1.78v3.19z"/><path d="m36.42 93.67c0-.28.09-.43.28-.43a.25.25 0 0 1 .22.12.54.54 0 0 1 .08.31.58.58 0 0 1 -.08.32.25.25 0 0 1 -.22.12c-.19 0-.28-.11-.28-.44zm.51 6.24h-.45v-4.91h.45z"/><path d="m42 99.91v-3.16a1.55 1.55 0 0 0 -.31-1.08 1.27 1.27 0 0 0 -1-.33 1.67 1.67 0 0 0 -1.28.44 2.1 2.1 0 0 0 -.41 1.44v2.69h-.44v-7h.44v2.23.62a1.69 1.69 0 0 1 .69-.64 2.45 2.45 0 0 1 1-.19c1.1 0 1.66.59 1.66 1.78v3.19z"/><path d="m46.08 100a2.1 2.1 0 0 1 -1.65-.66 2.59 2.59 0 0 1 -.6-1.83 2.83 2.83 0 0 1 .58-1.87 1.87 1.87 0 0 1 1.54-.7 1.66 1.66 0 0 1 1.36.6 2.43 2.43 0 0 1 .5 1.63v.36h-3.51a2.29 2.29 0 0 0 .47 1.54 1.64 1.64 0 0 0 1.31.53 4 4 0 0 0 .74-.06 4.36 4.36 0 0 0 .8-.25v.4a4.19 4.19 0 0 1 -.76.25 4.67 4.67 0 0 1 -.78.06zm-.08-4.67a1.47 1.47 0 0 0 -1.13.47 2.22 2.22 0 0 0 -.5 1.34h3a2.1 2.1 0 0 0 -.37-1.33 1.2 1.2 0 0 0 -1-.48z"/><path d="m51.15 94.94a4 4 0 0 1 .66.06l-.08.43a2.29 2.29 0 0 0 -.64-.08 1.24 1.24 0 0 0 -1 .53 2.13 2.13 0 0 0 -.4 1.34v2.69h-.45v-4.91h.38v.88a2.09 2.09 0 0 1 .64-.76 1.55 1.55 0 0 1 .89-.18z"/><path d="m55.83 99.91-.11-.77a2.4 2.4 0 0 1 -.75.67 2 2 0 0 1 -.97.19 1.58 1.58 0 0 1 -1.12-.37 1.29 1.29 0 0 1 -.4-1 1.27 1.27 0 0 1 .6-1.11 3.2 3.2 0 0 1 1.72-.41h.93v-.32a1.62 1.62 0 0 0 -.29-1 1.07 1.07 0 0 0 -.91-.36 3 3 0 0 0 -1.4.38l-.13-.49a3.78 3.78 0 0 1 1.59-.38 1.56 1.56 0 0 1 1.2.42 1.82 1.82 0 0 1 .4 1.3v3.25zm-1.83-.31a1.56 1.56 0 0 0 1.69-1.69v-.48h-.85a3.33 3.33 0 0 0 -1.47.32 1 1 0 0 0 -.44.85.93.93 0 0 0 .28.71 1.14 1.14 0 0 0 .79.29z"/><path d="m63.22 99.91-.11-.77a2.32 2.32 0 0 1 -.76.67 2 2 0 0 1 -.91.19 1.58 1.58 0 0 1 -1.12-.37 1.41 1.41 0 0 1 .19-2.13 3.24 3.24 0 0 1 1.73-.41h.93v-.32a1.62 1.62 0 0 0 -.29-1 1.09 1.09 0 0 0 -.91-.36 3 3 0 0 0 -1.4.38l-.17-.39a3.74 3.74 0 0 1 1.6-.46 1.58 1.58 0 0 1 1.2.42 1.82 1.82 0 0 1 .4 1.3v3.25zm-1.8-.31a1.56 1.56 0 0 0 1.69-1.69v-.48h-.86a3.32 3.32 0 0 0 -1.46.32 1 1 0 0 0 -.44.85.89.89 0 0 0 .28.71 1.14 1.14 0 0 0 .79.29z"/><path d="m68.16 99.91-.16-.77a2.43 2.43 0 0 1 -.76.67 2 2 0 0 1 -.92.19 1.58 1.58 0 0 1 -1.12-.37 1.32 1.32 0 0 1 -.39-1 1.26 1.26 0 0 1 .59-1.11 3.23 3.23 0 0 1 1.72-.41h.93v-.32a1.63 1.63 0 0 0 -.28-1 1.09 1.09 0 0 0 -.91-.36 3.08 3.08 0 0 0 -1.41.38l-.16-.39a3.7 3.7 0 0 1 1.58-.38 1.6 1.6 0 0 1 1.21.42 1.87 1.87 0 0 1 .39 1.3v3.25zm-1.8-.31a1.56 1.56 0 0 0 1.64-1.69v-.48h-.85a3.37 3.37 0 0 0 -1.47.32.94.94 0 0 0 -.43.85.89.89 0 0 0 .28.71 1.12 1.12 0 0 0 .83.29z"/><path d="m74.4 99.91h-.46v-6.13h-2.13v-.43h4.73v.43h-2.14z"/><path d="m80.43 99.91-.12-.77a2.43 2.43 0 0 1 -.76.67 2 2 0 0 1 -.92.19 1.54 1.54 0 0 1 -1.11-.37 1.29 1.29 0 0 1 -.4-1 1.26 1.26 0 0 1 .59-1.11 3.23 3.23 0 0 1 1.72-.41h.93v-.32a1.63 1.63 0 0 0 -.28-1 1.09 1.09 0 0 0 -.91-.36 3.11 3.11 0 0 0 -1.41.38l-.16-.39a3.71 3.71 0 0 1 1.59-.38 1.59 1.59 0 0 1 1.2.42 1.87 1.87 0 0 1 .39 1.3v3.25zm-1.8-.31a1.56 1.56 0 0 0 1.68-1.69v-.48h-.85a3.41 3.41 0 0 0 -1.47.32.94.94 0 0 0 -.43.85.89.89 0 0 0 .28.71 1.12 1.12 0 0 0 .79.29z"/><path d="m82.84 97.77 2.49-2.77h.54l-1.93 2.08 2.06 2.83h-.5l-1.86-2.46-.8.72v1.74h-.44v-7h.44v3.51 1.34z"/><path d="m86.85 93.67c0-.28.09-.43.28-.43a.24.24 0 0 1 .22.12.54.54 0 0 1 .08.31.58.58 0 0 1 -.08.32.24.24 0 0 1 -.22.12c-.19 0-.28-.11-.28-.44zm.51 6.24h-.45v-4.91h.45z"/><path d="m93 99.91-1.07-3.26c-.07-.23-.16-.55-.27-1l-.1.33-.2.66-1.09 3.25h-.44l-1.45-4.89h.47l.79 2.83c.18.7.3 1.21.35 1.54.18-.7.31-1.16.39-1.39l1-3h.41l1 3c.22.7.35 1.17.4 1.39q0-.28.36-1.56l.75-2.81h.45l-1.33 4.88z"/><path d="m98.73 99.91-.11-.77a2.3 2.3 0 0 1 -.75.67 2 2 0 0 1 -.92.19 1.58 1.58 0 0 1 -1.12-.37 1.32 1.32 0 0 1 -.4-1 1.27 1.27 0 0 1 .57-1.13 3.23 3.23 0 0 1 1.72-.41h.93v-.32a1.69 1.69 0 0 0 -.28-1 1.11 1.11 0 0 0 -.92-.36 3 3 0 0 0 -1.4.38l-.17-.39a3.78 3.78 0 0 1 1.59-.38 1.56 1.56 0 0 1 1.2.42 1.82 1.82 0 0 1 .4 1.3v3.25zm-1.79-.31a1.56 1.56 0 0 0 1.68-1.69v-.48h-.85a3.33 3.33 0 0 0 -1.47.32 1 1 0 0 0 -.44.85.93.93 0 0 0 .28.71 1.17 1.17 0 0 0 .8.29z"/><path d="m103.67 99.91-.11-.77a2.32 2.32 0 0 1 -.76.67 2 2 0 0 1 -.91.19 1.58 1.58 0 0 1 -1.12-.37 1.41 1.41 0 0 1 .19-2.13 3.24 3.24 0 0 1 1.73-.41h.92v-.32a1.63 1.63 0 0 0 -.28-1 1.09 1.09 0 0 0 -.91-.36 3 3 0 0 0 -1.4.38l-.17-.39a3.78 3.78 0 0 1 1.59-.38 1.58 1.58 0 0 1 1.2.42 1.87 1.87 0 0 1 .4 1.3v3.25zm-1.8-.31a1.7 1.7 0 0 0 1.24-.45 1.67 1.67 0 0 0 .45-1.24v-.48h-.86a3.32 3.32 0 0 0 -1.46.32 1 1 0 0 0 -.44.85.89.89 0 0 0 .28.71 1.14 1.14 0 0 0 .79.29z"/><path d="m112.13 97.46a2.76 2.76 0 0 1 -.58 1.87 2 2 0 0 1 -1.6.67 2 2 0 0 1 -1.88-1.2 3.27 3.27 0 0 1 -.26-1.34 2.8 2.8 0 0 1 .58-1.86 2 2 0 0 1 1.59-.66 2 2 0 0 1 1.58.67 2.78 2.78 0 0 1 .57 1.85zm-3.85 0a2.51 2.51 0 0 0 .44 1.57 1.66 1.66 0 0 0 2.5 0 2.44 2.44 0 0 0 .44-1.57 2.47 2.47 0 0 0 -.44-1.56 1.53 1.53 0 0 0 -1.26-.56 1.48 1.48 0 0 0 -1.24.56 2.4 2.4 0 0 0 -.44 1.56z"/><path d="m121.34 99.91h-.34l-1.45-5.06c-.11-.42-.21-.76-.26-1q-.08.39-.21.9t-1.45 5.19h-.38l-1.81-6.56h.48l1.08 4.2c0 .17.09.32.13.47s.07.28.1.41l.09.37c0 .12 0 .23.07.35.07-.4.22-1 .46-1.85l1.12-4h.51l1.31 4.57c.15.52.26 1 .33 1.27 0-.21.09-.44.15-.68s.52-2 1.38-5.16h.47z"/><path d="m127.23 99.91-.11-.77a2.3 2.3 0 0 1 -.75.67 2 2 0 0 1 -.92.19 1.58 1.58 0 0 1 -1.12-.37 1.29 1.29 0 0 1 -.4-1 1.27 1.27 0 0 1 .6-1.11 3.2 3.2 0 0 1 1.72-.41h.93v-.32a1.62 1.62 0 0 0 -.29-1 1.09 1.09 0 0 0 -.91-.36 3 3 0 0 0 -1.4.38l-.17-.39a3.78 3.78 0 0 1 1.59-.38 1.56 1.56 0 0 1 1.2.42 1.82 1.82 0 0 1 .4 1.3v3.25zm-1.8-.31a1.56 1.56 0 0 0 1.69-1.69v-.48h-.85a3.33 3.33 0 0 0 -1.47.32 1 1 0 0 0 -.44.85.93.93 0 0 0 .28.71 1.14 1.14 0 0 0 .79.29z"/><path d="m129.14 93.67c0-.28.09-.43.28-.43a.24.24 0 0 1 .22.12.54.54 0 0 1 .08.31.58.58 0 0 1 -.08.32.24.24 0 0 1 -.22.12c-.19 0-.28-.11-.28-.44zm.51 6.24h-.45v-4.91h.45z"/><path d="m131.78 97.77 2.49-2.77h.54l-1.92 2.08 2.09 2.8h-.53l-1.86-2.46-.8.72v1.74h-.44v-7h.44v3.51 1.34z"/><path d="m138.82 99.91-.11-.77a2.43 2.43 0 0 1 -.76.67 2 2 0 0 1 -.92.19 1.58 1.58 0 0 1 -1.12-.37 1.32 1.32 0 0 1 -.4-1 1.27 1.27 0 0 1 .6-1.11 3.23 3.23 0 0 1 1.72-.41h.93v-.32a1.63 1.63 0 0 0 -.28-1 1.09 1.09 0 0 0 -.91-.36 3.08 3.08 0 0 0 -1.41.38l-.17-.39a3.78 3.78 0 0 1 1.6-.38 1.55 1.55 0 0 1 1.19.42 1.82 1.82 0 0 1 .4 1.3v3.25zm-1.82-.31a1.56 1.56 0 0 0 1.68-1.69v-.48h-.85a3.37 3.37 0 0 0 -1.47.32.94.94 0 0 0 -.43.85.89.89 0 0 0 .28.71 1.12 1.12 0 0 0 .79.29z"/><path d="m142.08 99.61a3.16 3.16 0 0 0 .74-.08v.36a2.35 2.35 0 0 1 -.74.11 1.2 1.2 0 0 1 -1-.35 1.62 1.62 0 0 1 -.3-1.08v-3.15h-.73v-.26l.73-.21.22-1.1h.23v1.15h1.43v.39h-1.43v3.09a1.43 1.43 0 0 0 .2.83.7.7 0 0 0 .65.3z"/><path d="m148 97.46a2.76 2.76 0 0 1 -.58 1.87 2 2 0 0 1 -1.6.67 2 2 0 0 1 -1.13-.31 1.94 1.94 0 0 1 -.75-.89 3.27 3.27 0 0 1 -.26-1.34 2.74 2.74 0 0 1 .58-1.86 2.22 2.22 0 0 1 3.17 0 2.78 2.78 0 0 1 .57 1.86zm-3.85 0a2.44 2.44 0 0 0 .44 1.57 1.66 1.66 0 0 0 2.5 0 2.51 2.51 0 0 0 .44-1.57 2.47 2.47 0 0 0 -.44-1.56 1.53 1.53 0 0 0 -1.26-.56 1.51 1.51 0 0 0 -1.25.56 2.46 2.46 0 0 0 -.45 1.56z"/><path d="m11.42 83.48a5.77 5.77 0 0 1 -1.6 4.4 6.4 6.4 0 0 1 -4.61 1.53h-3.21v-11.64h3.6a5.94 5.94 0 0 1 4.32 1.5 5.57 5.57 0 0 1 1.5 4.21zm-2 .06c0-2.78-1.3-4.18-3.91-4.18h-1.65v8.45h1.35q4.22 0 4.21-4.27z"/><path d="m15.59 78.27a1 1 0 0 1 .27-.77 1.08 1.08 0 0 1 .79-.27 1 1 0 0 1 .76.27 1 1 0 0 1 .28.77 1 1 0 0 1 -.28.75 1 1 0 0 1 -.76.28 1 1 0 0 1 -.79-.28 1 1 0 0 1 -.27-.75zm2 11.14h-1.89v-8.81h1.87z"/><path d="m28.13 86.9a2.3 2.3 0 0 1 -.94 2 4.49 4.49 0 0 1 -2.69.69 6.49 6.49 0 0 1 -2.83-.59v-1.58a6.94 6.94 0 0 0 2.89.72c1.16 0 1.73-.35 1.73-1a.78.78 0 0 0 -.19-.55 2.33 2.33 0 0 0 -.63-.47 10.34 10.34 0 0 0 -1.22-.54 5.41 5.41 0 0 1 -2.05-1.18 2.17 2.17 0 0 1 -.54-1.53 2 2 0 0 1 .91-1.75 4.3 4.3 0 0 1 2.48-.62 7 7 0 0 1 2.94.62l-.61 1.41a6.6 6.6 0 0 0 -2.38-.64c-1 0-1.48.29-1.48.85a.84.84 0 0 0 .38.7 9.06 9.06 0 0 0 1.68.79 7.35 7.35 0 0 1 1.59.77 2.23 2.23 0 0 1 .73.81 2.31 2.31 0 0 1 .23 1.09z"/><path d="m35.41 88.06a4.6 4.6 0 0 0 1.36-.22v1.41a3.54 3.54 0 0 1 -.8.23 5.5 5.5 0 0 1 -1 .09c-1.77 0-2.66-.94-2.66-2.8v-4.77h-1.21v-.83l1.29-.68.61-1.84h1.16v1.95h2.51v1.4h-2.49v4.71a1.29 1.29 0 0 0 .34 1 1.21 1.21 0 0 0 .89.35z"/><path d="m45 80.45a4 4 0 0 1 .93.08l-.18 1.74a3.25 3.25 0 0 0 -.83-.1 2.43 2.43 0 0 0 -1.82.73 2.68 2.68 0 0 0 -.69 1.91v4.6h-1.9v-8.81h1.49l.25 1.56h.09a3.39 3.39 0 0 1 1.15-1.25 2.66 2.66 0 0 1 1.51-.46z"/><path d="m49.4 78.27a1 1 0 0 1 .27-.77 1.08 1.08 0 0 1 .79-.27 1 1 0 0 1 .76.27 1 1 0 0 1 .28.77 1 1 0 0 1 -.28.75 1 1 0 0 1 -.76.28 1 1 0 0 1 -.79-.28 1 1 0 0 1 -.27-.75zm2 11.14h-1.89v-8.81h1.87z"/><path d="m59.58 89.57a3.84 3.84 0 0 1 -3-1.17 5.9 5.9 0 0 1 .05-6.76 4 4 0 0 1 3.14-1.19 6 6 0 0 1 2.51.51l-.57 1.51a5.59 5.59 0 0 0 -2-.46q-2.28 0-2.28 3a3.59 3.59 0 0 0 .57 2.25 2 2 0 0 0 1.66.75 4.82 4.82 0 0 0 2.34-.62v1.61a3.79 3.79 0 0 1 -1.07.42 6.1 6.1 0 0 1 -1.35.15z"/><path d="m69.35 88.06a4.67 4.67 0 0 0 1.37-.22v1.41a3.7 3.7 0 0 1 -.8.23 5.69 5.69 0 0 1 -1 .09c-1.77 0-2.65-.94-2.65-2.8v-4.77h-1.27v-.83l1.29-.68.71-1.84h1.15v1.95h2.51v1.4h-2.54v4.71a1.33 1.33 0 0 0 .34 1 1.24 1.24 0 0 0 .89.35z"/><path d="m85.81 79.23a3.14 3.14 0 0 0 -2.58 1.17 4.93 4.93 0 0 0 -.94 3.21 5 5 0 0 0 .91 3.24 3.18 3.18 0 0 0 2.61 1.09 6.74 6.74 0 0 0 1.43-.14c.47-.1 1-.23 1.44-.38v1.63a8.58 8.58 0 0 1 -3.1.52 5 5 0 0 1 -3.92-1.57 6.44 6.44 0 0 1 -1.37-4.43 7.23 7.23 0 0 1 .71-3.16 4.67 4.67 0 0 1 1.92-2.08 5.78 5.78 0 0 1 3-.73 7.32 7.32 0 0 1 3.29.75l-.68 1.59a9.28 9.28 0 0 0 -1.25-.49 4.53 4.53 0 0 0 -1.47-.22z"/><path d="m100.78 85a4.81 4.81 0 0 1 -1.11 3.37 4 4 0 0 1 -3.08 1.21 4.24 4.24 0 0 1 -2.18-.58 3.6 3.6 0 0 1 -1.41-1.59 5.42 5.42 0 0 1 -.56-2.41 4.77 4.77 0 0 1 1.1-3.34 4 4 0 0 1 3.1-1.2 3.86 3.86 0 0 1 3 1.22 4.8 4.8 0 0 1 1.14 3.32zm-6.41 0c0 2 .75 3.05 2.25 3.05s2.23-1 2.23-3.05-.75-3-2.25-3a1.9 1.9 0 0 0 -1.7.78 3.93 3.93 0 0 0 -.53 2.22z"/><path d="m111.11 89.41-.27-1.16h-.09a2.7 2.7 0 0 1 -1.11 1 3.77 3.77 0 0 1 -1.65.35 3.25 3.25 0 0 1 -2.39-.8 3.31 3.31 0 0 1 -.78-2.41v-5.79h1.88v5.4a2.34 2.34 0 0 0 .42 1.52 1.57 1.57 0 0 0 1.3.51 2.07 2.07 0 0 0 1.73-.71 3.86 3.86 0 0 0 .55-2.32v-4.4h1.88v8.81z"/><path d="m125 89.41h-1.87v-5.41a2.32 2.32 0 0 0 -.42-1.52 1.56 1.56 0 0 0 -1.3-.51 2.07 2.07 0 0 0 -1.73.7 3.85 3.85 0 0 0 -.55 2.35v4.39h-1.87v-8.81h1.46l.27 1.16h.01a2.62 2.62 0 0 1 1.13-1 3.78 3.78 0 0 1 1.63-.34q3.17 0 3.16 3.22z"/><path d="m133.09 89.57a3.87 3.87 0 0 1 -3-1.17 5.9 5.9 0 0 1 0-6.76 4 4 0 0 1 3.14-1.19 6 6 0 0 1 2.51.51l-.57 1.51a5.59 5.59 0 0 0 -2-.46c-1.53 0-2.29 1-2.29 3a3.59 3.59 0 0 0 .57 2.22 2 2 0 0 0 1.67.75 4.81 4.81 0 0 0 2.36-.62v1.64a3.67 3.67 0 0 1 -1.07.42 6.1 6.1 0 0 1 -1.32.15z"/><path d="m139.47 78.27a1 1 0 0 1 .28-.77 1.06 1.06 0 0 1 1.83.77 1.1 1.1 0 0 1 -1.83.75 1 1 0 0 1 -.28-.75zm2 11.14h-1.86v-8.81h1.86z"/><path d="m148 89.41h-1.9v-12.41h1.9z"/></g></svg>